<svg xmlns="http://www.w3.org/2000/svg" xmlns:svg="http://www.w3.org/2000/svg" id="svg13826" width="68.165" height="66.143" version="1.1" viewBox="0 0 18.035 17.5"><metadata id="metadata13823"/><g id="layer1" transform="translate(-0.99262638,-1.174181)"><g id="g70" transform="matrix(1.0148887,0,0,1.0148887,16.937424,-2.698726)"><path id="path3055" fill="#326ce5" fill-opacity="1" stroke="none" stroke-dasharray="none" stroke-miterlimit="4" stroke-opacity="1" stroke-width="0" d="m -6.8492015,4.2724668 a 1.1191255,1.1099671 0 0 0 -0.4288818,0.1085303 l -5.8524037,2.7963394 a 1.1191255,1.1099671 0 0 0 -0.605524,0.7529759 l -1.443828,6.2812846 a 1.1191255,1.1099671 0 0 0 0.151943,0.851028 1.1191255,1.1099671 0 0 0 0.06362,0.08832 l 4.0508,5.036555 a 1.1191255,1.1099671 0 0 0 0.874979,0.417654 l 6.4961011,-0.0015 a 1.1191255,1.1099671 0 0 0 0.8749788,-0.416906 L 1.3818872,15.149453 A 1.1191255,1.1099671 0 0 0 1.5981986,14.210104 L 0.15212657,7.9288154 A 1.1191255,1.1099671 0 0 0 -0.45339794,7.1758396 L -6.3065496,4.3809971 A 1.1191255,1.1099671 0 0 0 -6.8492015,4.2724668 Z"/><path id="path3054-2-9" fill="#fff" fill-opacity="1" fill-rule="nonzero" stroke="none" stroke-dasharray="none" stroke-miterlimit="4" stroke-width="0" d="M -6.8523435,3.8176372 A 1.1814304,1.171762 0 0 0 -7.3044284,3.932904 l -6.1787426,2.9512758 a 1.1814304,1.171762 0 0 0 -0.639206,0.794891 l -1.523915,6.6308282 a 1.1814304,1.171762 0 0 0 0.160175,0.89893 1.1814304,1.171762 0 0 0 0.06736,0.09281 l 4.276094,5.317236 a 1.1814304,1.171762 0 0 0 0.92363,0.440858 l 6.8576188,-0.0015 a 1.1814304,1.171762 0 0 0 0.9236308,-0.44011 l 4.2745966,-5.317985 a 1.1814304,1.171762 0 0 0 0.228288,-0.990993 L 0.53894439,7.6775738 A 1.1814304,1.171762 0 0 0 -0.10026101,6.8834313 L -6.2790037,3.9321555 A 1.1814304,1.171762 0 0 0 -6.8523435,3.8176372 Z m 0.00299,0.4550789 a 1.1191255,1.1099671 0 0 1 0.5426517,0.1085303 l 5.85315169,2.7948425 A 1.1191255,1.1099671 0 0 1 0.15197811,7.9290648 L 1.598051,14.21035 a 1.1191255,1.1099671 0 0 1 -0.2163123,0.939348 l -4.0493032,5.037304 a 1.1191255,1.1099671 0 0 1 -0.8749789,0.416906 l -6.4961006,0.0015 a 1.1191255,1.1099671 0 0 1 -0.874979,-0.417652 l -4.0508,-5.036554 a 1.1191255,1.1099671 0 0 1 -0.06362,-0.08832 1.1191255,1.1099671 0 0 1 -0.151942,-0.851028 l 1.443827,-6.2812853 a 1.1191255,1.1099671 0 0 1 0.605524,-0.7529758 l 5.8524036,-2.7963395 a 1.1191255,1.1099671 0 0 1 0.4288819,-0.1085303 z" baseline-shift="baseline" color="#000" direction="ltr" display="inline" enable-background="accumulate" font-family="Sans" font-size="medium" font-stretch="normal" font-style="normal" font-variant="normal" font-weight="normal" letter-spacing="normal" overflow="visible" text-anchor="start" text-decoration="none" visibility="visible" word-spacing="normal" writing-mode="lr-tb" style="line-height:normal;-inkscape-font-specification:Sans;text-indent:0;text-align:start;text-decoration-line:none;text-transform:none;marker:none"/></g><g id="g4221" transform="translate(0.26877762,1.0923105)"><path id="path1234" fill="none" fill-rule="evenodd" stroke="#fff" stroke-dasharray="1.587 1.587" stroke-dashoffset="3.667" stroke-linecap="square" stroke-linejoin="round" stroke-miterlimit="10" stroke-opacity="1" stroke-width=".529" d="m 8.0530333,5.1290756 6.5250067,0 0,4.583335 -6.5250067,0 z"/><g id="g4213"><path id="path1238" fill="#326ce5" fill-opacity="1" fill-rule="evenodd" stroke="#fff" stroke-dasharray="1.587 1.587" stroke-dashoffset="3.879" stroke-linecap="square" stroke-linejoin="round" stroke-miterlimit="10" stroke-opacity="1" stroke-width=".529" d="m 6.5142849,6.5403876 6.5250071,0 0,4.5833354 -6.5250071,0 z"/><path id="path1240" fill="#fff" fill-rule="evenodd" stroke="none" stroke-linecap="square" stroke-miterlimit="10" stroke-width=".265" d="m 4.9755578,7.9516984 6.5249912,0 0,4.5833346 -6.5249912,0 z"/><path id="path1242" fill="none" fill-rule="evenodd" stroke="#fff" stroke-linecap="butt" stroke-linejoin="round" stroke-miterlimit="10" stroke-opacity="1" stroke-width=".529" d="m 4.9755578,7.9516984 6.5249912,0 0,4.5833346 -6.5249912,0 z"/><path id="path1246" fill="#fff" fill-opacity="1" fill-rule="evenodd" stroke="none" stroke-linecap="square" stroke-miterlimit="10" stroke-width=".265" d="m 5.5087198,9.2260482 0,0 c 0,-0.4294054 1.2218881,-0.7775054 2.7291615,-0.7775054 1.5072743,0 2.7291787,0.3481 2.7291787,0.7775054 l 0,0 c 0,0.4294054 -1.2219044,0.7775068 -2.7291787,0.7775068 -1.5072734,0 -2.7291615,-0.3481014 -2.7291615,-0.7775068 z"/><path id="path1248" fill="#000" fill-opacity="0" fill-rule="evenodd" stroke="none" stroke-linecap="square" stroke-miterlimit="10" stroke-width=".265" d="m 10.967067,9.2260482 0,0 c 0,0.4294054 -1.2219064,0.7775068 -2.7291777,0.7775068 -1.5072734,0 -2.7291614,-0.3481014 -2.7291614,-0.7775068 l 0,0 c 0,-0.4294054 1.221888,-0.7775054 2.7291614,-0.7775054 1.5072733,0 2.7291777,0.3481 2.7291777,0.7775054 l 0,2.1033228 c 0,0.429405 -1.2219064,0.777506 -2.7291777,0.777506 -1.5072734,0 -2.7291614,-0.348101 -2.7291614,-0.777506 l 0,-2.1033228"/><path id="path1250" fill="none" fill-rule="evenodd" stroke="#326ce5" stroke-linecap="butt" stroke-linejoin="round" stroke-miterlimit="10" stroke-opacity="1" stroke-width=".529" d="m 10.967067,9.2260482 0,0 c 0,0.4294054 -1.2219064,0.7775068 -2.7291777,0.7775068 -1.5072734,0 -2.7291614,-0.3481014 -2.7291614,-0.7775068 l 0,0 c 0,-0.4294054 1.221888,-0.7775054 2.7291614,-0.7775054 1.5072733,0 2.7291777,0.3481 2.7291777,0.7775054 l 0,2.1033228 c 0,0.429405 -1.2219064,0.777506 -2.7291777,0.777506 -1.5072734,0 -2.7291614,-0.348101 -2.7291614,-0.777506 l 0,-2.1033228"/></g></g></g></svg>