<svg xmlns="http://www.w3.org/2000/svg" xmlns:svg="http://www.w3.org/2000/svg" id="svg13826" width="68.165" height="66.143" version="1.1" viewBox="0 0 18.035 17.5"><metadata id="metadata13823"/><g id="layer1" transform="translate(-0.99262638,-1.174181)"><g id="g70" transform="matrix(1.0148887,0,0,1.0148887,16.902146,-2.698726)"><path id="path3055" fill="#326ce5" fill-opacity="1" stroke="none" stroke-dasharray="none" stroke-miterlimit="4" stroke-opacity="1" stroke-width="0" d="m -6.8492015,4.2724668 a 1.1191255,1.1099671 0 0 0 -0.4288818,0.1085303 l -5.8524037,2.7963394 a 1.1191255,1.1099671 0 0 0 -0.605524,0.7529759 l -1.443828,6.2812846 a 1.1191255,1.1099671 0 0 0 0.151943,0.851028 1.1191255,1.1099671 0 0 0 0.06362,0.08832 l 4.0508,5.036555 a 1.1191255,1.1099671 0 0 0 0.874979,0.417654 l 6.4961011,-0.0015 a 1.1191255,1.1099671 0 0 0 0.8749788,-0.416906 L 1.3818872,15.149453 A 1.1191255,1.1099671 0 0 0 1.5981986,14.210104 L 0.15212657,7.9288154 A 1.1191255,1.1099671 0 0 0 -0.45339794,7.1758396 L -6.3065496,4.3809971 A 1.1191255,1.1099671 0 0 0 -6.8492015,4.2724668 Z"/><path id="path3054-2-9" fill="#fff" fill-opacity="1" fill-rule="nonzero" stroke="none" stroke-dasharray="none" stroke-miterlimit="4" stroke-width="0" d="M -6.8523435,3.8176372 A 1.1814304,1.171762 0 0 0 -7.3044284,3.932904 l -6.1787426,2.9512758 a 1.1814304,1.171762 0 0 0 -0.639206,0.794891 l -1.523915,6.6308282 a 1.1814304,1.171762 0 0 0 0.160175,0.89893 1.1814304,1.171762 0 0 0 0.06736,0.09281 l 4.276094,5.317236 a 1.1814304,1.171762 0 0 0 0.92363,0.440858 l 6.8576188,-0.0015 a 1.1814304,1.171762 0 0 0 0.9236308,-0.44011 l 4.2745966,-5.317985 a 1.1814304,1.171762 0 0 0 0.228288,-0.990993 L 0.53894439,7.6775738 A 1.1814304,1.171762 0 0 0 -0.10026101,6.8834313 L -6.2790037,3.9321555 A 1.1814304,1.171762 0 0 0 -6.8523435,3.8176372 Z m 0.00299,0.4550789 a 1.1191255,1.1099671 0 0 1 0.5426517,0.1085303 l 5.85315169,2.7948425 A 1.1191255,1.1099671 0 0 1 0.15197811,7.9290648 L 1.598051,14.21035 a 1.1191255,1.1099671 0 0 1 -0.2163123,0.939348 l -4.0493032,5.037304 a 1.1191255,1.1099671 0 0 1 -0.8749789,0.416906 l -6.4961006,0.0015 a 1.1191255,1.1099671 0 0 1 -0.874979,-0.417652 l -4.0508,-5.036554 a 1.1191255,1.1099671 0 0 1 -0.06362,-0.08832 1.1191255,1.1099671 0 0 1 -0.151942,-0.851028 l 1.443827,-6.2812853 a 1.1191255,1.1099671 0 0 1 0.605524,-0.7529758 l 5.8524036,-2.7963395 a 1.1191255,1.1099671 0 0 1 0.4288819,-0.1085303 z" baseline-shift="baseline" color="#000" direction="ltr" display="inline" enable-background="accumulate" font-family="Sans" font-size="medium" font-stretch="normal" font-style="normal" font-variant="normal" font-weight="normal" letter-spacing="normal" overflow="visible" text-anchor="start" text-decoration="none" visibility="visible" word-spacing="normal" writing-mode="lr-tb" style="line-height:normal;-inkscape-font-specification:Sans;text-indent:0;text-align:start;text-decoration-line:none;text-transform:none;marker:none"/></g><text id="text2066" x="9.899" y="16.882" fill="#fff" fill-opacity="1" stroke="none" stroke-linecap="butt" stroke-linejoin="miter" stroke-opacity="1" stroke-width=".265" font-family="Sans" font-size="10.583" font-style="normal" font-weight="normal" letter-spacing="0" word-spacing="0" xml:space="preserve" style="line-height:6.61458349px"><tspan id="tspan2064" x="9.899" y="16.882" fill="#fff" fill-opacity="1" stroke-width=".265" font-family="Arial" font-size="2.822" font-stretch="normal" font-style="normal" font-variant="normal" font-weight="normal" text-anchor="middle" writing-mode="lr-tb" style="-inkscape-font-specification:'Arial, Normal';text-align:center">user</tspan></text><path id="rect8339" fill="#fff" fill-opacity="1" fill-rule="nonzero" stroke="none" stroke-dasharray=".403 .202" stroke-dashoffset="5.019" stroke-linecap="butt" stroke-linejoin="round" stroke-miterlimit="10" stroke-opacity="1" stroke-width=".202" d="m 6.1678183,4.7914438 c -0.47453,0 -0.85677,0.381949 -0.85677,0.856475 l 0,7.2852132 c 0,0.474526 0.38224,0.856764 0.85677,0.856764 l 7.6852397,0 c 0.474521,0 0.85648,-0.382238 0.85648,-0.856764 l 0,-7.2852132 c 0,-0.474526 -0.381959,-0.856475 -0.85648,-0.856475 z m 3.8426097,1.421701 c 0.72979,0 1.31436,0.589172 1.31436,1.3189612 0,0.729785 -0.58457,1.31867 -1.31436,1.31867 -0.7297797,1e-6 -1.3189497,-0.588885 -1.3189497,-1.31867 0,-0.7297892 0.58917,-1.3189612 1.3189497,-1.3189612 z m 0,3.5171312 c 1.02435,-2e-6 3.07738,0.514206 3.07738,1.538545 l 0,1.099086 -6.1550397,0 0,-1.099086 c 0,-1.024339 2.05333,-1.538545 3.0776597,-1.538545 z" opacity="1"/></g></svg>